# xmcd CD database file
#
# Track frame offsets:
#	150
#	13359
#	24560
#	38882
#	53093
#	65893
#	78607
#	90527
#	104496
#	114337
#	126673
#	138860
#	153010
#	164623
#	178641
#	191611
#	205020
#	218782
#	232511
#	246947
#	260738
#	275291
#	289517
#	300828
#	312625
#
# Disc length: 4337 seconds
#
# Revision: 1
# Processed by: cddbd v1.5.2PL0 Copyright (c) Steve Scherf et al.
# Submitted via: CDex 1.70beta2
#
DISCID=6310ef19
DTITLE=Ernest Tubb - Texas Troubadour  -  Vol. 2
DYEAR=2003
DGENRE=Country
TTITLE0=Slippin' Around
TTITLE1=My Tennessee Baby
TTITLE2=My Filipino Rose
TTITLE3=Warm Red Wine
TTITLE4=Blue Christmas
TTITLE5=White Christmas
TTITLE6=Tennessee Border #2
TTITLE7=Letters Have No Arms
TTITLE8=Don't Be Ashamed Of Your Age
TTITLE9=I'll Take A Backseat For You
TTITLE10=I Love You Because
TTITLE11=Unfaithful One
TTITLE12=Throw Your Love My Way
TTITLE13=Give Me A Little Old Fashioned Love
TTITLE14=Hillbilly Fever #15
TTITLE15=I'm The One Who Loves You
TTITLE16=Goodnight Irene
TTITLE17=Don't Stay Too Long
TTITLE18=Hey La La
TTITLE19=Driftwood On The River
TTITLE20=The Strange Little Girl
TTITLE21=Missing In Action
TTITLE22=Somebody's Stolen My Honey
TTITLE23=Fortunes In Memories
TTITLE24=Too Old To Cut The Mustard
EXTD=YEAR: 2003
EXTT0=
EXTT1=
EXTT2=
EXTT3=
EXTT4=
EXTT5=
EXTT6=
EXTT7=
EXTT8=
EXTT9=
EXTT10=
EXTT11=
EXTT12=
EXTT13=
EXTT14=
EXTT15=
EXTT16=
EXTT17=
EXTT18=
EXTT19=
EXTT20=
EXTT21=
EXTT22=
EXTT23=
EXTT24=
PLAYORDER=
